<svg width="189" height="88" viewBox="0 0 189 88" fill="none" xmlns="http://www.w3.org/2000/svg">
<mask id="mask0_390_1666" style="mask-type:luminance" maskUnits="userSpaceOnUse" x="173" y="31" width="2" height="2">
<mask id="path-1-inside-1_390_1666" fill="white">
<path d="M173.812 31.5H174.938V32.625H173.812V31.5Z"/>
</mask>
<path d="M173.812 31.5H174.938V32.625H173.812V31.5Z" fill="white"/>
<path d="M173.812 31.5V30.1667H172.479V31.5H173.812ZM174.938 31.5H176.271V30.1667H174.938V31.5ZM174.938 32.625V33.9583H176.271V32.625H174.938ZM173.812 32.625H172.479V33.9583H173.812V32.625ZM173.812 31.5V32.8333H174.938V31.5V30.1667H173.812V31.5ZM174.938 31.5H173.604V32.625H174.938H176.271V31.5H174.938ZM174.938 32.625V31.2917H173.812V32.625V33.9583H174.938V32.625ZM173.812 32.625H175.146V31.5H173.812H172.479V32.625H173.812Z" fill="white" mask="url(#path-1-inside-1_390_1666)"/>
</mask>
<g mask="url(#mask0_390_1666)">
<mask id="mask1_390_1666" style="mask-type:luminance" maskUnits="userSpaceOnUse" x="173" y="31" width="2" height="2">
<mask id="path-3-inside-2_390_1666" fill="white">
<path d="M173.791 32.1658L174.546 31.7922L174.733 32.1702L173.977 32.5437L173.791 32.1658Z"/>
</mask>
<path d="M173.791 32.1658L174.546 31.7922L174.733 32.1702L173.977 32.5437L173.791 32.1658Z" fill="white"/>
<path d="M173.791 32.1658L173.2 30.9704L172.004 31.5612L172.595 32.7565L173.791 32.1658ZM174.546 31.7922L175.742 31.2015L175.151 30.0062L173.956 30.5969L174.546 31.7922ZM174.733 32.1702L175.324 33.3655L176.519 32.7748L175.928 31.5794L174.733 32.1702ZM173.977 32.5437L172.782 33.1344L173.373 34.3298L174.568 33.739L173.977 32.5437ZM173.791 32.1658L174.381 33.3611L175.137 32.9876L174.546 31.7922L173.956 30.5969L173.2 30.9704L173.791 32.1658ZM174.546 31.7922L173.351 32.383L173.538 32.7609L174.733 32.1702L175.928 31.5794L175.742 31.2015L174.546 31.7922ZM174.733 32.1702L174.142 30.9748L173.387 31.3484L173.977 32.5437L174.568 33.739L175.324 33.3655L174.733 32.1702ZM173.977 32.5437L175.173 31.953L174.986 31.5751L173.791 32.1658L172.595 32.7565L172.782 33.1344L173.977 32.5437Z" fill="white" mask="url(#path-3-inside-2_390_1666)"/>
</mask>
<g mask="url(#mask1_390_1666)">
<mask id="mask2_390_1666" style="mask-type:luminance" maskUnits="userSpaceOnUse" x="173" y="31" width="2" height="2">
<mask id="path-5-inside-3_390_1666" fill="white">
<path d="M173.791 32.1658L174.546 31.7922L174.733 32.1702L173.977 32.5437L173.791 32.1658Z"/>
</mask>
<path d="M173.791 32.1658L174.546 31.7922L174.733 32.1702L173.977 32.5437L173.791 32.1658Z" fill="white"/>
<path d="M173.791 32.1658L173.2 30.9704L172.004 31.5612L172.595 32.7565L173.791 32.1658ZM174.546 31.7922L175.742 31.2015L175.151 30.0062L173.956 30.5969L174.546 31.7922ZM174.733 32.1702L175.324 33.3655L176.519 32.7748L175.928 31.5794L174.733 32.1702ZM173.977 32.5437L172.782 33.1344L173.373 34.3298L174.568 33.739L173.977 32.5437ZM173.791 32.1658L174.381 33.3611L175.137 32.9876L174.546 31.7922L173.956 30.5969L173.2 30.9704L173.791 32.1658ZM174.546 31.7922L173.351 32.383L173.538 32.7609L174.733 32.1702L175.928 31.5794L175.742 31.2015L174.546 31.7922ZM174.733 32.1702L174.142 30.9748L173.387 31.3484L173.977 32.5437L174.568 33.739L175.324 33.3655L174.733 32.1702ZM173.977 32.5437L175.173 31.953L174.986 31.5751L173.791 32.1658L172.595 32.7565L172.782 33.1344L173.977 32.5437Z" fill="white" mask="url(#path-5-inside-3_390_1666)"/>
</mask>
<g mask="url(#mask2_390_1666)">
<path d="M174.177 32.6363L174.13 32.5416L174.072 32.6304C174.094 32.644 174.121 32.6514 174.149 32.6461L174.177 32.6363ZM174.177 32.6363L174.348 32.5513M174.177 32.6363L174.13 32.5406L174.132 32.5377M174.348 32.5513L174.132 32.5377M174.348 32.5513L174.378 32.5367M174.348 32.5513L174.132 32.5377M174.132 32.5377L174.386 32.15M174.386 32.15L174.387 32.1509L174.494 32.3599M174.386 32.15L174.374 32.1422M174.386 32.15L174.128 32.5357L174.031 32.3355L174.033 32.3013M174.494 32.3599L174.378 32.5367M174.494 32.3599L174.544 32.4556M174.494 32.3599L174.378 32.5367M174.378 32.5367L174.544 32.4556M174.544 32.4556C174.621 32.4161 174.628 32.3104 174.558 32.2642M174.544 32.4556L174.495 32.358M174.153 32.1285L174.374 32.1422M174.153 32.1285L174.033 32.3013M174.153 32.1285L174.374 32.1422M174.153 32.1285L174.033 32.3013M174.374 32.1422L174.368 32.1382L174.215 32.0386M174.033 32.3013L174.045 32.1216M174.558 32.2642L174.495 32.358M174.558 32.2642L174.495 32.358M174.558 32.2642L174.398 32.1578L174.495 32.358M174.045 32.1216L174.154 32.1265M174.045 32.1216C174.05 32.0382 174.145 31.9903 174.215 32.0386M174.045 32.1216L174.154 32.1265M174.154 32.1265L174.215 32.0386M174.154 32.1265L174.215 32.0386M174.127 32.5357L174.066 32.6285C174.043 32.6132 174.026 32.5897 174.021 32.5611L174.019 32.5308L174.031 32.3384L174.127 32.5357Z" fill="#D35400" stroke="#D35400" stroke-width="1.33333"/>
</g>
</g>
</g>
<mask id="mask3_390_1666" style="mask-type:luminance" maskUnits="userSpaceOnUse" x="178" y="30" width="1" height="2">
<mask id="path-8-inside-4_390_1666" fill="white">
<path d="M178.312 30.9375H178.875V31.5H178.312V30.9375Z"/>
</mask>
<path d="M178.312 30.9375H178.875V31.5H178.312V30.9375Z" fill="white"/>
<path d="M178.312 30.9375V29.6042H176.979V30.9375H178.312ZM178.875 30.9375H180.208V29.6042H178.875V30.9375ZM178.875 31.5V32.8333H180.208V31.5H178.875ZM178.312 31.5H176.979V32.8333H178.312V31.5ZM178.312 30.9375V32.2708H178.875V30.9375V29.6042H178.312V30.9375ZM178.875 30.9375H177.542V31.5H178.875H180.208V30.9375H178.875ZM178.875 31.5V30.1667H178.312V31.5V32.8333H178.875V31.5ZM178.312 31.5H179.646V30.9375H178.312H176.979V31.5H178.312Z" fill="white" mask="url(#path-8-inside-4_390_1666)"/>
</mask>
<g mask="url(#mask3_390_1666)">
<mask id="mask4_390_1666" style="mask-type:luminance" maskUnits="userSpaceOnUse" x="178" y="30" width="1" height="2">
<mask id="path-10-inside-5_390_1666" fill="white">
<path d="M178.635 30.9728L178.802 31.3617L178.414 31.5265L178.249 31.1376L178.635 30.9728Z"/>
</mask>
<path d="M178.635 30.9728L178.802 31.3617L178.414 31.5265L178.249 31.1376L178.635 30.9728Z" fill="white"/>
<path d="M178.635 30.9728L179.861 30.4467L179.336 29.2249L178.113 29.7461L178.635 30.9728ZM178.802 31.3617L179.323 32.5893L180.556 32.0666L180.028 30.8356L178.802 31.3617ZM178.414 31.5265L177.186 32.0467L177.706 33.2743L178.934 32.7541L178.414 31.5265ZM178.249 31.1376L177.726 29.9109L176.502 30.4326L177.021 31.6577L178.249 31.1376ZM178.635 30.9728L177.41 31.4988L177.577 31.8877L178.802 31.3617L180.028 30.8356L179.861 30.4467L178.635 30.9728ZM178.802 31.3617L178.282 30.134L177.893 30.2988L178.414 31.5265L178.934 32.7541L179.323 32.5893L178.802 31.3617ZM178.414 31.5265L179.641 31.0063L179.476 30.6174L178.249 31.1376L177.021 31.6577L177.186 32.0467L178.414 31.5265ZM178.249 31.1376L178.771 32.3642L179.158 32.1994L178.635 30.9728L178.113 29.7461L177.726 29.9109L178.249 31.1376Z" fill="white" mask="url(#path-10-inside-5_390_1666)"/>
</mask>
<g mask="url(#mask4_390_1666)">
<mask id="mask5_390_1666" style="mask-type:luminance" maskUnits="userSpaceOnUse" x="178" y="30" width="1" height="2">
<mask id="path-12-inside-6_390_1666" fill="white">
<path d="M178.635 30.9728L178.802 31.3617L178.414 31.5265L178.249 31.1376L178.635 30.9728Z"/>
</mask>
<path d="M178.635 30.9728L178.802 31.3617L178.414 31.5265L178.249 31.1376L178.635 30.9728Z" fill="white"/>
<path d="M178.635 30.9728L179.861 30.4467L179.336 29.2249L178.113 29.7461L178.635 30.9728ZM178.802 31.3617L179.323 32.5893L180.556 32.0666L180.028 30.8356L178.802 31.3617ZM178.414 31.5265L177.186 32.0467L177.706 33.2743L178.934 32.7541L178.414 31.5265ZM178.249 31.1376L177.726 29.9109L176.502 30.4326L177.021 31.6577L178.249 31.1376ZM178.635 30.9728L177.41 31.4988L177.577 31.8877L178.802 31.3617L180.028 30.8356L179.861 30.4467L178.635 30.9728ZM178.802 31.3617L178.282 30.134L177.893 30.2988L178.414 31.5265L178.934 32.7541L179.323 32.5893L178.802 31.3617ZM178.414 31.5265L179.641 31.0063L179.476 30.6174L178.249 31.1376L177.021 31.6577L177.186 32.0467L178.414 31.5265ZM178.249 31.1376L178.771 32.3642L179.158 32.1994L178.635 30.9728L178.113 29.7461L177.726 29.9109L178.249 31.1376Z" fill="white" mask="url(#path-12-inside-6_390_1666)"/>
</mask>
<g mask="url(#mask5_390_1666)">
<path d="M178.565 31.353L178.542 31.3705C178.524 31.3778 178.504 31.3757 178.489 31.3647L178.47 31.3422M178.565 31.353L178.522 31.3197L178.47 31.3422M178.565 31.353L178.523 31.3197L178.621 31.2787L178.565 31.353ZM178.47 31.3422L178.52 31.3188L178.432 31.2524L178.47 31.3422ZM178.627 31.2719L178.626 31.2729L178.522 31.3188L178.431 31.2455L178.442 31.1362L178.627 31.2719ZM178.627 31.2719L178.634 31.2612L178.688 31.1879C178.714 31.155 178.693 31.1066 178.651 31.102L178.545 31.0873M178.627 31.2719L178.443 31.1322V31.1303M178.545 31.0873L178.443 31.1303M178.545 31.0873L178.538 31.0863L178.449 31.0756M178.545 31.0873L178.443 31.1303M178.443 31.1303L178.449 31.0756M178.449 31.0756C178.427 31.0734 178.407 31.083 178.396 31.0981L178.44 31.1303H178.441L178.449 31.0756ZM178.395 31.101L178.44 31.1352L178.427 31.2387L178.391 31.1528C178.383 31.1343 178.386 31.1155 178.395 31.101Z" fill="#D35400" stroke="#D35400" stroke-width="1.33333"/>
</g>
</g>
</g>
<mask id="mask6_390_1666" style="mask-type:luminance" maskUnits="userSpaceOnUse" x="173" y="30" width="6" height="2">
<mask id="path-15-inside-7_390_1666" fill="white">
<path d="M173.112 30.7705H178.684V31.4055H173.112V30.7705Z"/>
</mask>
<path d="M173.112 30.7705H178.684V31.4055H173.112V30.7705Z" fill="white"/>
<path d="M173.112 30.7705V29.4372H171.778V30.7705H173.112ZM178.684 30.7705H180.017V29.4372H178.684V30.7705ZM178.684 31.4055V32.7389H180.017V31.4055H178.684ZM173.112 31.4055H171.778V32.7389H173.112V31.4055ZM173.112 30.7705V32.1038H178.684V30.7705V29.4372H173.112V30.7705ZM178.684 30.7705H177.351V31.4055H178.684H180.017V30.7705H178.684ZM178.684 31.4055V30.0722H173.112V31.4055V32.7389H178.684V31.4055ZM173.112 31.4055H174.445V30.7705H173.112H171.778V31.4055H173.112Z" fill="white" mask="url(#path-15-inside-7_390_1666)"/>
</mask>
<g mask="url(#mask6_390_1666)">
<mask id="mask7_390_1666" style="mask-type:luminance" maskUnits="userSpaceOnUse" x="173" y="30" width="6" height="2">
<mask id="path-17-inside-8_390_1666" fill="white">
<path d="M173.43 30.7705H178.365C178.541 30.7705 178.684 30.9133 178.684 31.0891C178.684 31.2649 178.541 31.4055 178.365 31.4055H173.43C173.254 31.4055 173.112 31.2649 173.112 31.0891C173.112 30.9133 173.254 30.7705 173.43 30.7705Z"/>
</mask>
<path d="M173.43 30.7705H178.365C178.541 30.7705 178.684 30.9133 178.684 31.0891C178.684 31.2649 178.541 31.4055 178.365 31.4055H173.43C173.254 31.4055 173.112 31.2649 173.112 31.0891C173.112 30.9133 173.254 30.7705 173.43 30.7705Z" fill="white"/>
<path d="M173.43 30.7705V32.1038H178.365V30.7705V29.4372H173.43V30.7705ZM178.365 30.7705V32.1038C177.805 32.1038 177.351 31.6497 177.351 31.0891H178.684H180.017C180.017 30.177 179.277 29.4372 178.365 29.4372V30.7705ZM178.684 31.0891H177.351C177.351 30.5165 177.817 30.0722 178.365 30.0722V31.4055V32.7389C179.265 32.7389 180.017 32.0133 180.017 31.0891H178.684ZM178.365 31.4055V30.0722H173.43V31.4055V32.7389H178.365V31.4055ZM173.43 31.4055V30.0722C173.979 30.0722 174.445 30.5165 174.445 31.0891H173.112H171.778C171.778 32.0133 172.53 32.7389 173.43 32.7389V31.4055ZM173.112 31.0891H174.445C174.445 31.6497 173.991 32.1038 173.43 32.1038V30.7705V29.4372C172.518 29.4372 171.778 30.177 171.778 31.0891H173.112Z" fill="white" mask="url(#path-17-inside-8_390_1666)"/>
</mask>
<g mask="url(#mask7_390_1666)">
<mask id="path-19-inside-9_390_1666" fill="white">
<path d="M173.112 30.7705H178.684V31.4055H173.112V30.7705Z"/>
</mask>
<path d="M173.112 30.7705H178.684V31.4055H173.112V30.7705Z" fill="#D35400"/>
<path d="M173.112 30.7705V29.4372H171.778V30.7705H173.112ZM178.684 30.7705H180.017V29.4372H178.684V30.7705ZM178.684 31.4055V32.7389H180.017V31.4055H178.684ZM173.112 31.4055H171.778V32.7389H173.112V31.4055ZM173.112 30.7705V32.1038H178.684V30.7705V29.4372H173.112V30.7705ZM178.684 30.7705H177.351V31.4055H178.684H180.017V30.7705H178.684ZM178.684 31.4055V30.0722H173.112V31.4055V32.7389H178.684V31.4055ZM173.112 31.4055H174.445V30.7705H173.112H171.778V31.4055H173.112Z" fill="#D35400" mask="url(#path-19-inside-9_390_1666)"/>
</g>
</g>
<mask id="mask8_390_1666" style="mask-type:luminance" maskUnits="userSpaceOnUse" x="171" y="36" width="1" height="1">
<mask id="path-21-inside-10_390_1666" fill="white">
<path d="M171.33 36.0813H171.751V36.5032H171.33V36.0813Z"/>
</mask>
<path d="M171.33 36.0813H171.751V36.5032H171.33V36.0813Z" fill="white"/>
<path d="M171.33 36.0813V34.748H169.996V36.0813H171.33ZM171.751 36.0813H173.085V34.748H171.751V36.0813ZM171.751 36.5032V37.8365H173.085V36.5032H171.751ZM171.33 36.5032H169.996V37.8365H171.33V36.5032ZM171.33 36.0813V37.4146H171.751V36.0813V34.748H171.33V36.0813ZM171.751 36.0813H170.418V36.5032H171.751H173.085V36.0813H171.751ZM171.751 36.5032V35.1698H171.33V36.5032V37.8365H171.751V36.5032ZM171.33 36.5032H172.663V36.0813H171.33H169.996V36.5032H171.33Z" fill="white" mask="url(#path-21-inside-10_390_1666)"/>
</mask>
<g mask="url(#mask8_390_1666)">
<path d="M171.455 36.4303L171.464 36.4352L171.545 36.4811L171.572 36.4889C171.58 36.4889 171.588 36.4856 171.595 36.4821L171.511 36.3326L171.455 36.4303ZM171.455 36.4303L171.51 36.3317L171.455 36.233M171.455 36.4303L171.452 36.4283L171.396 36.3317L171.453 36.234L171.455 36.233M171.57 36.4342L171.598 36.4821C171.606 36.4775 171.613 36.4709 171.618 36.4625L171.626 36.4352V36.3365M171.57 36.4342L171.626 36.3365M171.57 36.4342L171.626 36.3365M171.57 36.4342L171.512 36.3317L171.598 36.1803C171.614 36.1891 171.626 36.2069 171.626 36.2281V36.3365M171.455 36.233L171.511 36.3297L171.595 36.1803C171.579 36.1731 171.561 36.1722 171.545 36.1823L171.464 36.2281L171.455 36.233ZM171.367 36.3805L171.449 36.4264L171.395 36.3317L171.367 36.3805ZM171.367 36.3805L171.395 36.3326V36.3307L171.45 36.235L171.367 36.2838L171.346 36.3043C171.332 36.3295 171.339 36.364 171.367 36.3805Z" fill="#D35400" stroke="#D35400" stroke-width="1.33333"/>
</g>
<mask id="mask9_390_1666" style="mask-type:luminance" maskUnits="userSpaceOnUse" x="176" y="58" width="6" height="4">
<path d="M180.458 59.167V60.6455H176.729V59.167H180.458Z" fill="white" stroke="white" stroke-width="1.33333"/>
</mask>
<g mask="url(#mask9_390_1666)">
<mask id="mask10_390_1666" style="mask-type:luminance" maskUnits="userSpaceOnUse" x="176" y="58" width="5" height="4">
<path d="M179.987 59.3318L179.966 60.53L177.082 60.4792L177.103 59.282L179.987 59.3318Z" fill="white" stroke="white" stroke-width="1.33333"/>
</mask>
<g mask="url(#mask10_390_1666)">
<mask id="mask11_390_1666" style="mask-type:luminance" maskUnits="userSpaceOnUse" x="176" y="58" width="5" height="4">
<path d="M179.987 59.3318L179.966 60.53L177.082 60.4792L177.103 59.282L179.987 59.3318Z" fill="white" stroke="white" stroke-width="1.33333"/>
</mask>
<g mask="url(#mask11_390_1666)">
<mask id="mask12_390_1666" style="mask-type:luminance" maskUnits="userSpaceOnUse" x="176" y="58" width="5" height="4">
<path d="M179.987 59.3318L179.966 60.53L177.082 60.4792L177.103 59.282L179.987 59.3318Z" fill="white" stroke="white" stroke-width="1.33333"/>
</mask>
<g mask="url(#mask12_390_1666)">
<path d="M179.961 60.5288L178.821 60.5102C178.836 60.5014 178.851 60.4927 178.866 60.4839C179.235 60.271 179.603 60.0572 179.972 59.8442C179.968 60.0725 179.965 60.3007 179.961 60.5288Z" fill="#D35400" stroke="#D35400" stroke-width="1.33333"/>
</g>
</g>
</g>
</g>
<mask id="mask13_390_1666" style="mask-type:luminance" maskUnits="userSpaceOnUse" x="179" y="59" width="3" height="3">
<path d="M181.021 60.292V60.6455H180.104V60.292H181.021Z" fill="white" stroke="white" stroke-width="1.33333"/>
</mask>
<g mask="url(#mask13_390_1666)">
<mask id="mask14_390_1666" style="mask-type:luminance" maskUnits="userSpaceOnUse" x="179" y="59" width="3" height="3">
<mask id="path-30-inside-11_390_1666" fill="white">
<path d="M181.303 61.2709L180.094 61.6422L179.598 60.0294L180.809 59.6581L181.303 61.2709Z"/>
</mask>
<path d="M181.303 61.2709L180.094 61.6422L179.598 60.0294L180.809 59.6581L181.303 61.2709Z" fill="white"/>
<path d="M181.303 61.2709L181.695 62.5454L182.968 62.154L182.578 60.8801L181.303 61.2709ZM180.094 61.6422L178.82 62.0346L179.212 63.3081L180.486 62.9167L180.094 61.6422ZM179.598 60.0294L179.207 58.7547L177.931 59.1461L178.324 60.4218L179.598 60.0294ZM180.809 59.6581L182.083 59.2673L181.693 57.9923L180.418 58.3833L180.809 59.6581ZM181.303 61.2709L180.911 59.9963L179.703 60.3677L180.094 61.6422L180.486 62.9167L181.695 62.5454L181.303 61.2709ZM180.094 61.6422L181.369 61.2498L180.872 59.637L179.598 60.0294L178.324 60.4218L178.82 62.0346L180.094 61.6422ZM179.598 60.0294L179.989 61.3041L181.2 60.9328L180.809 59.6581L180.418 58.3833L179.207 58.7547L179.598 60.0294ZM180.809 59.6581L179.534 60.0488L180.028 61.6616L181.303 61.2709L182.578 60.8801L182.083 59.2673L180.809 59.6581Z" fill="white" mask="url(#path-30-inside-11_390_1666)"/>
</mask>
<g mask="url(#mask14_390_1666)">
<mask id="mask15_390_1666" style="mask-type:luminance" maskUnits="userSpaceOnUse" x="179" y="59" width="3" height="3">
<mask id="path-32-inside-12_390_1666" fill="white">
<path d="M181.303 61.2709L180.094 61.6422L179.598 60.0294L180.809 59.6581L181.303 61.2709Z"/>
</mask>
<path d="M181.303 61.2709L180.094 61.6422L179.598 60.0294L180.809 59.6581L181.303 61.2709Z" fill="white"/>
<path d="M181.303 61.2709L181.695 62.5454L182.968 62.154L182.578 60.8801L181.303 61.2709ZM180.094 61.6422L178.82 62.0346L179.212 63.3081L180.486 62.9167L180.094 61.6422ZM179.598 60.0294L179.207 58.7547L177.931 59.1461L178.324 60.4218L179.598 60.0294ZM180.809 59.6581L182.083 59.2673L181.693 57.9923L180.418 58.3833L180.809 59.6581ZM181.303 61.2709L180.911 59.9963L179.703 60.3677L180.094 61.6422L180.486 62.9167L181.695 62.5454L181.303 61.2709ZM180.094 61.6422L181.369 61.2498L180.872 59.637L179.598 60.0294L178.324 60.4218L178.82 62.0346L180.094 61.6422ZM179.598 60.0294L179.989 61.3041L181.2 60.9328L180.809 59.6581L180.418 58.3833L179.207 58.7547L179.598 60.0294ZM180.809 59.6581L179.534 60.0488L180.028 61.6616L181.303 61.2709L182.578 60.8801L182.083 59.2673L180.809 59.6581Z" fill="white" mask="url(#path-32-inside-12_390_1666)"/>
</mask>
<g mask="url(#mask15_390_1666)">
<mask id="mask16_390_1666" style="mask-type:luminance" maskUnits="userSpaceOnUse" x="179" y="59" width="3" height="3">
<mask id="path-34-inside-13_390_1666" fill="white">
<path d="M181.303 61.2709L180.094 61.6422L179.598 60.0294L180.809 59.6581L181.303 61.2709Z"/>
</mask>
<path d="M181.303 61.2709L180.094 61.6422L179.598 60.0294L180.809 59.6581L181.303 61.2709Z" fill="white"/>
<path d="M181.303 61.2709L181.695 62.5454L182.968 62.154L182.578 60.8801L181.303 61.2709ZM180.094 61.6422L178.82 62.0346L179.212 63.3081L180.486 62.9167L180.094 61.6422ZM179.598 60.0294L179.207 58.7547L177.931 59.1461L178.324 60.4218L179.598 60.0294ZM180.809 59.6581L182.083 59.2673L181.693 57.9923L180.418 58.3833L180.809 59.6581ZM181.303 61.2709L180.911 59.9963L179.703 60.3677L180.094 61.6422L180.486 62.9167L181.695 62.5454L181.303 61.2709ZM180.094 61.6422L181.369 61.2498L180.872 59.637L179.598 60.0294L178.324 60.4218L178.82 62.0346L180.094 61.6422ZM179.598 60.0294L179.989 61.3041L181.2 60.9328L180.809 59.6581L180.418 58.3833L179.207 58.7547L179.598 60.0294ZM180.809 59.6581L179.534 60.0488L180.028 61.6616L181.303 61.2709L182.578 60.8801L182.083 59.2673L180.809 59.6581Z" fill="white" mask="url(#path-34-inside-13_390_1666)"/>
</mask>
<g mask="url(#mask16_390_1666)">
<mask id="path-36-inside-14_390_1666" fill="white">
<path d="M181.303 61.2707L181.055 60.4643L180.809 59.6601C180.404 59.7831 180.002 59.9084 179.598 60.0314C180.167 60.4445 180.736 60.8576 181.303 61.2707Z"/>
</mask>
<path d="M181.303 61.2707L181.055 60.4643L180.809 59.6601C180.404 59.7831 180.002 59.9084 179.598 60.0314C180.167 60.4445 180.736 60.8576 181.303 61.2707Z" fill="#D35400"/>
<path d="M181.303 61.2707L180.518 62.3483L183.757 64.7083L182.577 60.8783L181.303 61.2707ZM181.055 60.4643L179.78 60.8545L179.78 60.8567L181.055 60.4643ZM180.809 59.6601L182.084 59.2699L181.694 57.9969L180.42 58.3845L180.809 59.6601ZM179.598 60.0314L179.21 58.7559L176.646 59.5362L178.815 61.1105L179.598 60.0314ZM181.303 61.2707L182.577 60.8783L182.329 60.0719L181.055 60.4643L179.78 60.8567L180.029 61.663L181.303 61.2707ZM181.055 60.4643L182.33 60.0741L182.084 59.2699L180.809 59.6601L179.534 60.0503L179.78 60.8545L181.055 60.4643ZM180.809 59.6601L180.42 58.3845C180.216 58.4468 180.012 58.5095 179.811 58.5715C179.609 58.6336 179.409 58.6951 179.21 58.7559L179.598 60.0314L179.986 61.307C180.191 61.2447 180.394 61.182 180.596 61.1201C180.798 61.0579 180.997 60.9964 181.197 60.9357L180.809 59.6601ZM179.598 60.0314L178.815 61.1105C179.384 61.5237 179.952 61.936 180.518 62.3483L181.303 61.2707L182.088 60.1931C181.52 59.7792 180.95 59.3654 180.381 58.9524L179.598 60.0314Z" fill="#D35400" mask="url(#path-36-inside-14_390_1666)"/>
</g>
</g>
</g>
</g>
<mask id="mask17_390_1666" style="mask-type:luminance" maskUnits="userSpaceOnUse" x="180" y="59" width="2" height="3">
<mask id="path-38-inside-15_390_1666" fill="white">
<path d="M180.185 59.4822H181.028V61.1697H180.185V59.4822Z"/>
</mask>
<path d="M180.185 59.4822H181.028V61.1697H180.185V59.4822Z" fill="white"/>
<path d="M180.185 59.4822V58.1488H178.851V59.4822H180.185ZM181.028 59.4822H182.362V58.1488H181.028V59.4822ZM181.028 61.1697V62.503H182.362V61.1697H181.028ZM180.185 61.1697H178.851V62.503H180.185V61.1697ZM180.185 59.4822V60.8155H181.028V59.4822V58.1488H180.185V59.4822ZM181.028 59.4822H179.695V61.1697H181.028H182.362V59.4822H181.028ZM181.028 61.1697V59.8363H180.185V61.1697V62.503H181.028V61.1697ZM180.185 61.1697H181.518V59.4822H180.185H178.851V61.1697H180.185Z" fill="white" mask="url(#path-38-inside-15_390_1666)"/>
</mask>
<g mask="url(#mask17_390_1666)">
<mask id="path-40-inside-16_390_1666" fill="white">
<path d="M180.183 59.4822L180.185 60.3259V61.1697C180.466 61.1675 180.747 61.1675 181.029 61.1675C180.747 60.605 180.464 60.0425 180.183 59.4822Z"/>
</mask>
<path d="M180.183 59.4822L180.185 60.3259V61.1697C180.466 61.1675 180.747 61.1675 181.029 61.1675C180.747 60.605 180.464 60.0425 180.183 59.4822Z" fill="#D35400"/>
<path d="M180.183 59.4822L181.374 58.884L178.849 59.4856L180.183 59.4822ZM180.185 60.3259H181.518L181.518 60.3225L180.185 60.3259ZM180.185 61.1697H178.851V62.5135L180.195 62.503L180.185 61.1697ZM181.029 61.1675V62.5008H183.186L182.221 60.5712L181.029 61.1675ZM180.183 59.4822L178.849 59.4856L178.851 60.3294L180.185 60.3259L181.518 60.3225L181.516 59.4787L180.183 59.4822ZM180.185 60.3259H178.851V61.1697H180.185H181.518V60.3259H180.185ZM180.185 61.1697L180.195 62.503C180.47 62.5008 180.746 62.5008 181.029 62.5008V61.1675V59.8341C180.748 59.8341 180.462 59.8341 180.174 59.8364L180.185 61.1697ZM181.029 61.1675L182.221 60.5712C181.939 60.0076 181.654 59.4417 181.374 58.884L180.183 59.4822L178.991 60.0803C179.274 60.6433 179.555 61.2024 179.836 61.7638L181.029 61.1675Z" fill="#D35400" mask="url(#path-40-inside-16_390_1666)"/>
</g>
<path d="M176.829 60.9082L181.145 60.9082" stroke="#D35400" stroke-width="2" stroke-linecap="round"/>
<mask id="mask18_390_1666" style="mask-type:luminance" maskUnits="userSpaceOnUse" x="176" y="34" width="2" height="2">
<mask id="path-43-inside-17_390_1666" fill="white">
<path d="M176.625 34.875H177.188V36H176.625V34.875Z"/>
</mask>
<path d="M176.625 34.875H177.188V36H176.625V34.875Z" fill="white"/>
<path d="M176.625 34.875V33.5417H175.292V34.875H176.625ZM177.188 34.875H178.521V33.5417H177.188V34.875ZM177.188 36V37.3333H178.521V36H177.188ZM176.625 36H175.292V37.3333H176.625V36ZM176.625 34.875V36.2083H177.188V34.875V33.5417H176.625V34.875ZM177.188 34.875H175.854V36H177.188H178.521V34.875H177.188ZM177.188 36V34.6667H176.625V36V37.3333H177.188V36ZM176.625 36H177.958V34.875H176.625H175.292V36H176.625Z" fill="white" mask="url(#path-43-inside-17_390_1666)"/>
</mask>
<g mask="url(#mask18_390_1666)">
<mask id="mask19_390_1666" style="mask-type:luminance" maskUnits="userSpaceOnUse" x="176" y="35" width="2" height="1">
<mask id="path-45-inside-18_390_1666" fill="white">
<path d="M177.137 35.2881L177.194 35.7056L176.774 35.7605L176.719 35.343L177.137 35.2881Z"/>
</mask>
<path d="M177.137 35.2881L177.194 35.7056L176.774 35.7605L176.719 35.343L177.137 35.2881Z" fill="white"/>
<path d="M177.137 35.2881L178.458 35.1073L178.278 33.7931L176.963 33.9661L177.137 35.2881ZM177.194 35.7056L177.367 37.0276L178.697 36.8536L178.515 35.5248L177.194 35.7056ZM176.774 35.7605L175.452 35.9344L175.626 37.2555L176.947 37.0826L176.774 35.7605ZM176.719 35.343L176.546 34.0211L175.224 34.195L175.398 35.517L176.719 35.343ZM177.137 35.2881L175.816 35.4689L175.873 35.8863L177.194 35.7056L178.515 35.5248L178.458 35.1073L177.137 35.2881ZM177.194 35.7056L177.021 34.3835L176.601 34.4384L176.774 35.7605L176.947 37.0826L177.367 37.0276L177.194 35.7056ZM176.774 35.7605L178.096 35.5866L178.041 35.1691L176.719 35.343L175.398 35.517L175.452 35.9344L176.774 35.7605ZM176.719 35.343L176.893 36.665L177.311 36.61L177.137 35.2881L176.963 33.9661L176.546 34.0211L176.719 35.343Z" fill="white" mask="url(#path-45-inside-18_390_1666)"/>
</mask>
<g mask="url(#mask19_390_1666)">
<mask id="mask20_390_1666" style="mask-type:luminance" maskUnits="userSpaceOnUse" x="176" y="35" width="2" height="1">
<mask id="path-47-inside-19_390_1666" fill="white">
<path d="M177.137 35.2881L177.194 35.7056L176.774 35.7605L176.719 35.343L177.137 35.2881Z"/>
</mask>
<path d="M177.137 35.2881L177.194 35.7056L176.774 35.7605L176.719 35.343L177.137 35.2881Z" fill="white"/>
<path d="M177.137 35.2881L178.458 35.1073L178.278 33.7931L176.963 33.9661L177.137 35.2881ZM177.194 35.7056L177.367 37.0276L178.697 36.8536L178.515 35.5248L177.194 35.7056ZM176.774 35.7605L175.452 35.9344L175.626 37.2555L176.947 37.0826L176.774 35.7605ZM176.719 35.343L176.546 34.0211L175.224 34.195L175.398 35.517L176.719 35.343ZM177.137 35.2881L175.816 35.4689L175.873 35.8863L177.194 35.7056L178.515 35.5248L178.458 35.1073L177.137 35.2881ZM177.194 35.7056L177.021 34.3835L176.601 34.4384L176.774 35.7605L176.947 37.0826L177.367 37.0276L177.194 35.7056ZM176.774 35.7605L178.096 35.5866L178.041 35.1691L176.719 35.343L175.398 35.517L175.452 35.9344L176.774 35.7605ZM176.719 35.343L176.893 36.665L177.311 36.61L177.137 35.2881L176.963 33.9661L176.546 34.0211L176.719 35.343Z" fill="white" mask="url(#path-47-inside-19_390_1666)"/>
</mask>
<g mask="url(#mask20_390_1666)">
<path d="M176.968 35.6354L176.867 35.5065L176.88 35.5983L176.891 35.6247C176.903 35.6394 176.922 35.647 176.941 35.6452L176.968 35.6354ZM176.968 35.6354L176.936 35.5915M176.968 35.6354L177.037 35.5807M176.936 35.5915L177.037 35.5807M176.936 35.5915L177.037 35.5807M176.936 35.5915L176.866 35.4958L176.907 35.3893L177.024 35.3776L177.095 35.4665M177.037 35.5807L177.045 35.5739L177.049 35.572L177.053 35.5681M177.095 35.4665L177.053 35.5681M177.095 35.4665L177.053 35.5681M177.095 35.4665L177.096 35.4684M177.053 35.5681L177.059 35.5632M177.096 35.4684L177.059 35.5632M177.096 35.4684L177.13 35.5104M177.096 35.4684L177.059 35.5632M177.059 35.5632L177.13 35.5104M177.13 35.5104C177.163 35.4842 177.157 35.4313 177.118 35.4157M177.13 35.5104L177.097 35.4665M177.118 35.4157L177.097 35.4665M177.118 35.4157L177.097 35.4665M177.118 35.4157L177.031 35.3796L177.097 35.4665M176.851 35.3962L176.864 35.488L176.905 35.3903L176.851 35.3962ZM176.851 35.3962L176.905 35.3884M176.851 35.3962C176.849 35.376 176.858 35.357 176.872 35.3454M176.905 35.3884L176.872 35.3454M176.905 35.3884L176.906 35.3874L176.928 35.3366M176.905 35.3884L176.872 35.3454M176.872 35.3454C176.887 35.3331 176.908 35.3287 176.928 35.3366M176.928 35.3366L177.014 35.3727L176.908 35.3874L176.928 35.3366Z" fill="#D35400" stroke="#D35400" stroke-width="1.33333"/>
</g>
</g>
</g>
<mask id="mask21_390_1666" style="mask-type:luminance" maskUnits="userSpaceOnUse" x="180" y="59" width="2" height="3">
<path d="M181.021 59.7295V60.6455H180.667V59.7295H181.021Z" fill="white" stroke="white" stroke-width="1.33333"/>
</mask>
<g mask="url(#mask21_390_1666)">
<mask id="mask22_390_1666" style="mask-type:luminance" maskUnits="userSpaceOnUse" x="180" y="59" width="2" height="3">
<mask id="path-51-inside-20_390_1666" fill="white">
<path d="M181.567 60.906L180.756 61.1345L180.297 59.5107L181.11 59.2822L181.567 60.906Z"/>
</mask>
<path d="M181.567 60.906L180.756 61.1345L180.297 59.5107L181.11 59.2822L181.567 60.906Z" fill="white"/>
<path d="M181.567 60.906L181.928 62.1893L183.211 61.8278L182.85 60.5448L181.567 60.906ZM180.756 61.1345L179.473 61.4974L179.835 62.7792L181.118 62.4179L180.756 61.1345ZM180.297 59.5107L179.936 58.2272L178.65 58.5885L179.014 59.8736L180.297 59.5107ZM181.11 59.2822L182.393 58.921L182.032 57.638L180.749 57.9986L181.11 59.2822ZM181.567 60.906L181.205 59.6227L180.394 59.8512L180.756 61.1345L181.118 62.4179L181.928 62.1893L181.567 60.906ZM180.756 61.1345L182.039 60.7717L181.58 59.1479L180.297 59.5107L179.014 59.8736L179.473 61.4974L180.756 61.1345ZM180.297 59.5107L180.657 60.7943L181.47 60.5658L181.11 59.2822L180.749 57.9986L179.936 58.2272L180.297 59.5107ZM181.11 59.2822L179.826 59.6435L180.283 61.2673L181.567 60.906L182.85 60.5448L182.393 58.921L181.11 59.2822Z" fill="white" mask="url(#path-51-inside-20_390_1666)"/>
</mask>
<g mask="url(#mask22_390_1666)">
<mask id="mask23_390_1666" style="mask-type:luminance" maskUnits="userSpaceOnUse" x="180" y="59" width="2" height="3">
<mask id="path-53-inside-21_390_1666" fill="white">
<path d="M181.567 60.906L180.756 61.1345L180.297 59.5107L181.11 59.2822L181.567 60.906Z"/>
</mask>
<path d="M181.567 60.906L180.756 61.1345L180.297 59.5107L181.11 59.2822L181.567 60.906Z" fill="white"/>
<path d="M181.567 60.906L181.928 62.1893L183.211 61.8278L182.85 60.5448L181.567 60.906ZM180.756 61.1345L179.473 61.4974L179.835 62.7792L181.118 62.4179L180.756 61.1345ZM180.297 59.5107L179.936 58.2272L178.65 58.5885L179.014 59.8736L180.297 59.5107ZM181.11 59.2822L182.393 58.921L182.032 57.638L180.749 57.9986L181.11 59.2822ZM181.567 60.906L181.205 59.6227L180.394 59.8512L180.756 61.1345L181.118 62.4179L181.928 62.1893L181.567 60.906ZM180.756 61.1345L182.039 60.7717L181.58 59.1479L180.297 59.5107L179.014 59.8736L179.473 61.4974L180.756 61.1345ZM180.297 59.5107L180.657 60.7943L181.47 60.5658L181.11 59.2822L180.749 57.9986L179.936 58.2272L180.297 59.5107ZM181.11 59.2822L179.826 59.6435L180.283 61.2673L181.567 60.906L182.85 60.5448L182.393 58.921L181.11 59.2822Z" fill="white" mask="url(#path-53-inside-21_390_1666)"/>
</mask>
<g mask="url(#mask23_390_1666)">
<mask id="mask24_390_1666" style="mask-type:luminance" maskUnits="userSpaceOnUse" x="180" y="59" width="2" height="3">
<mask id="path-55-inside-22_390_1666" fill="white">
<path d="M181.567 60.906L180.756 61.1345L180.297 59.5107L181.11 59.2822L181.567 60.906Z"/>
</mask>
<path d="M181.567 60.906L180.756 61.1345L180.297 59.5107L181.11 59.2822L181.567 60.906Z" fill="white"/>
<path d="M181.567 60.906L181.928 62.1893L183.211 61.8278L182.85 60.5448L181.567 60.906ZM180.756 61.1345L179.473 61.4974L179.835 62.7792L181.118 62.4179L180.756 61.1345ZM180.297 59.5107L179.936 58.2272L178.65 58.5885L179.014 59.8736L180.297 59.5107ZM181.11 59.2822L182.393 58.921L182.032 57.638L180.749 57.9986L181.11 59.2822ZM181.567 60.906L181.205 59.6227L180.394 59.8512L180.756 61.1345L181.118 62.4179L181.928 62.1893L181.567 60.906ZM180.756 61.1345L182.039 60.7717L181.58 59.1479L180.297 59.5107L179.014 59.8736L179.473 61.4974L180.756 61.1345ZM180.297 59.5107L180.657 60.7943L181.47 60.5658L181.11 59.2822L180.749 57.9986L179.936 58.2272L180.297 59.5107ZM181.11 59.2822L179.826 59.6435L180.283 61.2673L181.567 60.906L182.85 60.5448L182.393 58.921L181.11 59.2822Z" fill="white" mask="url(#path-55-inside-22_390_1666)"/>
</mask>
<g mask="url(#mask24_390_1666)">
<mask id="path-57-inside-23_390_1666" fill="white">
<path d="M181.566 60.906L181.338 60.0952L181.109 59.2822C180.839 59.3591 180.569 59.436 180.299 59.5129C180.72 59.9766 181.145 60.4424 181.566 60.906Z"/>
</mask>
<path d="M181.566 60.906L181.338 60.0952L181.109 59.2822C180.839 59.3591 180.569 59.436 180.299 59.5129C180.72 59.9766 181.145 60.4424 181.566 60.906Z" fill="#D35400"/>
<path d="M181.566 60.906L180.58 61.8034L182.85 60.5443L181.566 60.906ZM181.338 60.0952L180.054 60.456L180.055 60.4569L181.338 60.0952ZM181.109 59.2822L182.393 58.9214L182.031 57.6337L180.744 57.9998L181.109 59.2822ZM180.299 59.5129L179.934 58.2305L177.865 58.8193L179.312 60.4103L180.299 59.5129ZM181.566 60.906L182.85 60.5443L182.621 59.7335L181.338 60.0952L180.055 60.4569L180.283 61.2677L181.566 60.906ZM181.338 60.0952L182.621 59.7344L182.393 58.9214L181.109 59.2822L179.826 59.643L180.054 60.456L181.338 60.0952ZM181.109 59.2822L180.744 57.9998C180.474 58.0767 180.204 58.1536 179.934 58.2305L180.299 59.5129L180.664 60.7954C180.934 60.7185 181.204 60.6416 181.474 60.5647L181.109 59.2822ZM180.299 59.5129L179.312 60.4103C179.523 60.6422 179.735 60.8746 179.946 61.107C180.158 61.3393 180.369 61.5716 180.58 61.8034L181.566 60.906L182.553 60.0086C182.342 59.7768 182.13 59.5444 181.919 59.312C181.707 59.0796 181.496 58.8473 181.285 58.6156L180.299 59.5129Z" fill="#D35400" mask="url(#path-57-inside-23_390_1666)"/>
</g>
</g>
</g>
</g>
<mask id="mask25_390_1666" style="mask-type:luminance" maskUnits="userSpaceOnUse" x="179" y="59" width="3" height="3">
<path d="M181.021 59.7295V60.6455H180.104V59.7295H181.021Z" fill="white" stroke="white" stroke-width="1.33333"/>
</mask>
<g mask="url(#mask25_390_1666)">
<mask id="mask26_390_1666" style="mask-type:luminance" maskUnits="userSpaceOnUse" x="179" y="59" width="3" height="3">
<mask id="path-60-inside-24_390_1666" fill="white">
<path d="M181.488 61.1104L180.277 61.4818L179.657 59.4669L180.868 59.0934L181.488 61.1104Z"/>
</mask>
<path d="M181.488 61.1104L180.277 61.4818L179.657 59.4669L180.868 59.0934L181.488 61.1104Z" fill="white"/>
<path d="M181.488 61.1104L181.879 62.3852L183.154 61.994L182.762 60.7189L181.488 61.1104ZM180.277 61.4818L179.002 61.8737L179.394 63.1472L180.668 62.7565L180.277 61.4818ZM179.657 59.4669L179.264 58.1928L177.991 58.5855L178.383 59.8588L179.657 59.4669ZM180.868 59.0934L182.142 58.7018L181.75 57.4257L180.475 57.8193L180.868 59.0934ZM181.488 61.1104L181.097 59.8357L179.886 60.2071L180.277 61.4818L180.668 62.7565L181.879 62.3852L181.488 61.1104ZM180.277 61.4818L181.551 61.0899L180.932 59.075L179.657 59.4669L178.383 59.8588L179.002 61.8737L180.277 61.4818ZM179.657 59.4669L180.05 60.741L181.261 60.3674L180.868 59.0934L180.475 57.8193L179.264 58.1928L179.657 59.4669ZM180.868 59.0934L179.593 59.4849L180.213 61.502L181.488 61.1104L182.762 60.7189L182.142 58.7018L180.868 59.0934Z" fill="white" mask="url(#path-60-inside-24_390_1666)"/>
</mask>
<g mask="url(#mask26_390_1666)">
<mask id="mask27_390_1666" style="mask-type:luminance" maskUnits="userSpaceOnUse" x="179" y="59" width="3" height="3">
<mask id="path-62-inside-25_390_1666" fill="white">
<path d="M181.488 61.1104L180.277 61.4818L179.657 59.4669L180.868 59.0934L181.488 61.1104Z"/>
</mask>
<path d="M181.488 61.1104L180.277 61.4818L179.657 59.4669L180.868 59.0934L181.488 61.1104Z" fill="white"/>
<path d="M181.488 61.1104L181.879 62.3852L183.154 61.994L182.762 60.7189L181.488 61.1104ZM180.277 61.4818L179.002 61.8737L179.394 63.1472L180.668 62.7565L180.277 61.4818ZM179.657 59.4669L179.264 58.1928L177.991 58.5855L178.383 59.8588L179.657 59.4669ZM180.868 59.0934L182.142 58.7018L181.75 57.4257L180.475 57.8193L180.868 59.0934ZM181.488 61.1104L181.097 59.8357L179.886 60.2071L180.277 61.4818L180.668 62.7565L181.879 62.3852L181.488 61.1104ZM180.277 61.4818L181.551 61.0899L180.932 59.075L179.657 59.4669L178.383 59.8588L179.002 61.8737L180.277 61.4818ZM179.657 59.4669L180.05 60.741L181.261 60.3674L180.868 59.0934L180.475 57.8193L179.264 58.1928L179.657 59.4669ZM180.868 59.0934L179.593 59.4849L180.213 61.502L181.488 61.1104L182.762 60.7189L182.142 58.7018L180.868 59.0934Z" fill="white" mask="url(#path-62-inside-25_390_1666)"/>
</mask>
<g mask="url(#mask27_390_1666)">
<mask id="mask28_390_1666" style="mask-type:luminance" maskUnits="userSpaceOnUse" x="179" y="59" width="3" height="3">
<mask id="path-64-inside-26_390_1666" fill="white">
<path d="M181.488 61.1104L180.277 61.4818L179.657 59.4669L180.868 59.0934L181.488 61.1104Z"/>
</mask>
<path d="M181.488 61.1104L180.277 61.4818L179.657 59.4669L180.868 59.0934L181.488 61.1104Z" fill="white"/>
<path d="M181.488 61.1104L181.879 62.3852L183.154 61.994L182.762 60.7189L181.488 61.1104ZM180.277 61.4818L179.002 61.8737L179.394 63.1472L180.668 62.7565L180.277 61.4818ZM179.657 59.4669L179.264 58.1928L177.991 58.5855L178.383 59.8588L179.657 59.4669ZM180.868 59.0934L182.142 58.7018L181.75 57.4257L180.475 57.8193L180.868 59.0934ZM181.488 61.1104L181.097 59.8357L179.886 60.2071L180.277 61.4818L180.668 62.7565L181.879 62.3852L181.488 61.1104ZM180.277 61.4818L181.551 61.0899L180.932 59.075L179.657 59.4669L178.383 59.8588L179.002 61.8737L180.277 61.4818ZM179.657 59.4669L180.05 60.741L181.261 60.3674L180.868 59.0934L180.475 57.8193L179.264 58.1928L179.657 59.4669ZM180.868 59.0934L179.593 59.4849L180.213 61.502L181.488 61.1104L182.762 60.7189L182.142 58.7018L180.868 59.0934Z" fill="white" mask="url(#path-64-inside-26_390_1666)"/>
</mask>
<g mask="url(#mask28_390_1666)">
<mask id="path-66-inside-27_390_1666" fill="white">
<path d="M181.485 61.1039L181.178 60.1019L180.868 59.0999C180.466 59.2252 180.064 59.3482 179.659 59.4735C180.268 60.0162 180.877 60.5611 181.485 61.1039Z"/>
</mask>
<path d="M181.485 61.1039L181.178 60.1019L180.868 59.0999C180.466 59.2252 180.064 59.3482 179.659 59.4735C180.268 60.0162 180.877 60.5611 181.485 61.1039Z" fill="#D35400"/>
<path d="M181.485 61.1039L180.598 62.099L184.161 65.2762L182.76 60.7125L181.485 61.1039ZM181.178 60.1019L182.452 59.7106L182.452 59.708L181.178 60.1019ZM180.868 59.0999L182.142 58.7061L181.747 57.4296L180.471 57.8269L180.868 59.0999ZM179.659 59.4735L179.265 58.1999L177.011 58.8981L178.772 60.4686L179.659 59.4735ZM181.485 61.1039L182.76 60.7125L182.452 59.7106L181.178 60.1019L179.903 60.4932L180.211 61.4952L181.485 61.1039ZM181.178 60.1019L182.452 59.708L182.142 58.7061L180.868 59.0999L179.594 59.4938L179.904 60.4958L181.178 60.1019ZM180.868 59.0999L180.471 57.8269C180.069 57.9524 179.677 58.0722 179.265 58.1999L179.659 59.4735L180.054 60.7471C180.45 60.6243 180.863 60.498 181.264 60.373L180.868 59.0999ZM179.659 59.4735L178.772 60.4686C179.076 60.7395 179.38 61.0109 179.684 61.2829C179.988 61.5548 180.293 61.8271 180.598 62.099L181.485 61.1039L182.373 60.1087C182.069 59.8379 181.765 59.5664 181.461 59.2944C181.157 59.0226 180.852 58.7502 180.547 58.4783L179.659 59.4735Z" fill="#D35400" mask="url(#path-66-inside-27_390_1666)"/>
</g>
</g>
</g>
</g>
<mask id="mask29_390_1666" style="mask-type:luminance" maskUnits="userSpaceOnUse" x="171" y="31" width="7" height="29">
<path d="M176.991 31.7407V59.0942H171.997V31.7407H176.991Z" fill="white" stroke="white" stroke-width="1.33333"/>
</mask>
<g mask="url(#mask29_390_1666)">
<path d="M174.56 31.7407L173.285 35.2261L173.154 35.5874L173.401 35.8833L176.746 39.8823H176.747L176.864 40.021L176.536 40.6733L173.078 47.5659L172.969 47.7837L173.027 48.021L173.403 49.5854L172.792 47.9614L172.699 47.6772L175.771 40.769L175.948 40.3706L175.655 40.0483L172.517 36.6118L172.099 36.1538L173.57 31.7407H174.56Z" fill="#D35400" stroke="#D35400" stroke-width="1.33333"/>
</g>
<mask id="mask30_390_1666" style="mask-type:luminance" maskUnits="userSpaceOnUse" x="172" y="31" width="7" height="29">
<path d="M178.186 31.7407V59.0942H173.192V31.7407H178.186Z" fill="white" stroke="white" stroke-width="1.33333"/>
</mask>
<g mask="url(#mask30_390_1666)">
<path d="M175.754 31.7407L174.479 35.2261L174.346 35.5874L174.594 35.8833L177.943 39.8823L178.058 40.02L177.731 40.6724L177.73 40.6733L174.274 47.5669L174.164 47.7847L174.222 48.021L174.601 49.5991L173.987 47.9624L173.895 47.6782L176.964 40.7681L177.141 40.3706L176.847 40.0483L173.709 36.6118L173.294 36.1548L174.764 31.7407H175.754Z" fill="#D35400" stroke="#D35400" stroke-width="1.33333"/>
</g>
<mask id="mask31_390_1666" style="mask-type:luminance" maskUnits="userSpaceOnUse" x="173" y="31" width="7" height="29">
<path d="M179.234 31.7407V59.0942H174.24V31.7407H179.234Z" fill="white" stroke="white" stroke-width="1.33333"/>
</mask>
<g mask="url(#mask31_390_1666)">
<path d="M176.805 31.7407L175.529 35.2261L175.397 35.5874L175.644 35.8833L178.99 39.8823H178.991L179.107 40.021L178.78 40.6733L175.322 47.5659L175.212 47.7847L175.27 48.021L175.646 49.5854L175.036 47.9614L174.943 47.6772L178.014 40.769L178.192 40.3706L177.898 40.0483L174.76 36.6118L174.342 36.1538L175.813 31.7407H176.805Z" fill="#D35400" stroke="#D35400" stroke-width="1.33333"/>
</g>
<mask id="mask32_390_1666" style="mask-type:luminance" maskUnits="userSpaceOnUse" x="174" y="31" width="7" height="29">
<path d="M180.164 31.7407V59.0942H175.169V31.7407H180.164Z" fill="white" stroke="white" stroke-width="1.33333"/>
</mask>
<g mask="url(#mask32_390_1666)">
<path d="M177.734 31.7407L176.458 35.2261L176.326 35.5874L176.574 35.8833L179.921 39.8804V39.8813L180.037 40.02L179.709 40.6733L176.251 47.5659L176.142 47.7847L176.199 48.021L176.574 49.5796L175.965 47.9614L175.873 47.6772L178.944 40.769L179.121 40.3706L178.827 40.0483L175.689 36.6118L175.274 36.1548L176.744 31.7407H177.734Z" fill="#D35400" stroke="#D35400" stroke-width="1.33333"/>
</g>
<mask id="mask33_390_1666" style="mask-type:luminance" maskUnits="userSpaceOnUse" x="171" y="45" width="11" height="17">
<path d="M181.021 46.2295V60.6455H172.229V46.2295H181.021Z" fill="white" stroke="white" stroke-width="1.33333"/>
</mask>
<g mask="url(#mask33_390_1666)">
<mask id="mask34_390_1666" style="mask-type:luminance" maskUnits="userSpaceOnUse" x="171" y="46" width="11" height="16">
<path d="M180.376 59.2073L176.9 60.3674L172.803 48.0774L176.281 46.9182L180.376 59.2073Z" fill="white" stroke="white" stroke-width="1.33333"/>
</mask>
<g mask="url(#mask34_390_1666)">
<path d="M180.376 59.2092L176.9 60.3694L172.803 48.0774L176.28 46.9182L180.376 59.2092Z" fill="#D35400" stroke="#D35400" stroke-width="1.33333"/>
</g>
</g>
<mask id="mask35_390_1666" style="mask-type:luminance" maskUnits="userSpaceOnUse" x="174" y="39" width="2" height="3">
<mask id="path-79-inside-28_390_1666" fill="white">
<path d="M174.938 39.9375H175.5V41.0625H174.938V39.9375Z"/>
</mask>
<path d="M174.938 39.9375H175.5V41.0625H174.938V39.9375Z" fill="white"/>
<path d="M174.938 39.9375V38.6042H173.604V39.9375H174.938ZM175.5 39.9375H176.833V38.6042H175.5V39.9375ZM175.5 41.0625V42.3958H176.833V41.0625H175.5ZM174.938 41.0625H173.604V42.3958H174.938V41.0625ZM174.938 39.9375V41.2708H175.5V39.9375V38.6042H174.938V39.9375ZM175.5 39.9375H174.167V41.0625H175.5H176.833V39.9375H175.5ZM175.5 41.0625V39.7292H174.938V41.0625V42.3958H175.5V41.0625ZM174.938 41.0625H176.271V39.9375H174.938H173.604V41.0625H174.938Z" fill="white" mask="url(#path-79-inside-28_390_1666)"/>
</mask>
<g mask="url(#mask35_390_1666)">
<mask id="mask36_390_1666" style="mask-type:luminance" maskUnits="userSpaceOnUse" x="175" y="40" width="1" height="1">
<mask id="path-81-inside-29_390_1666" fill="white">
<path d="M175.166 40.7373L175.1 40.322L175.518 40.2539L175.583 40.6714L175.166 40.7373Z"/>
</mask>
<path d="M175.166 40.7373L175.1 40.322L175.518 40.2539L175.583 40.6714L175.166 40.7373Z" fill="white"/>
<path d="M175.166 40.7373L173.849 40.9463L174.058 42.2621L175.374 42.0543L175.166 40.7373ZM175.1 40.322L174.885 39.0061L173.575 39.2199L173.783 40.531L175.1 40.322ZM175.518 40.2539L176.835 40.046L176.626 38.7222L175.303 38.938L175.518 40.2539ZM175.583 40.6714L175.791 41.9884L177.108 41.7805L176.901 40.4634L175.583 40.6714ZM175.166 40.7373L176.483 40.5283L176.417 40.113L175.1 40.322L173.783 40.531L173.849 40.9463L175.166 40.7373ZM175.1 40.322L175.315 41.638L175.732 41.5698L175.518 40.2539L175.303 38.938L174.885 39.0061L175.1 40.322ZM175.518 40.2539L174.201 40.4619L174.266 40.8793L175.583 40.6714L176.901 40.4634L176.835 40.046L175.518 40.2539ZM175.583 40.6714L175.376 39.3544L174.958 39.4203L175.166 40.7373L175.374 42.0543L175.791 41.9884L175.583 40.6714Z" fill="white" mask="url(#path-81-inside-29_390_1666)"/>
</mask>
<g mask="url(#mask36_390_1666)">
<mask id="mask37_390_1666" style="mask-type:luminance" maskUnits="userSpaceOnUse" x="175" y="40" width="1" height="1">
<mask id="path-83-inside-30_390_1666" fill="white">
<path d="M175.166 40.7373L175.1 40.322L175.518 40.2539L175.583 40.6714L175.166 40.7373Z"/>
</mask>
<path d="M175.166 40.7373L175.1 40.322L175.518 40.2539L175.583 40.6714L175.166 40.7373Z" fill="white"/>
<path d="M175.166 40.7373L173.849 40.9463L174.058 42.2621L175.374 42.0543L175.166 40.7373ZM175.1 40.322L174.885 39.0061L173.575 39.2199L173.783 40.531L175.1 40.322ZM175.518 40.2539L176.835 40.046L176.626 38.7222L175.303 38.938L175.518 40.2539ZM175.583 40.6714L175.791 41.9884L177.108 41.7805L176.901 40.4634L175.583 40.6714ZM175.166 40.7373L176.483 40.5283L176.417 40.113L175.1 40.322L173.783 40.531L173.849 40.9463L175.166 40.7373ZM175.1 40.322L175.315 41.638L175.732 41.5698L175.518 40.2539L175.303 38.938L174.885 39.0061L175.1 40.322ZM175.518 40.2539L174.201 40.4619L174.266 40.8793L175.583 40.6714L176.901 40.4634L176.835 40.046L175.518 40.2539ZM175.583 40.6714L175.376 39.3544L174.958 39.4203L175.166 40.7373L175.374 42.0543L175.791 41.9884L175.583 40.6714Z" fill="white" mask="url(#path-83-inside-30_390_1666)"/>
</mask>
<g mask="url(#mask37_390_1666)">
<path d="M175.434 40.5281L175.431 40.5144L175.364 40.4295L175.283 40.6385L175.28 40.6472M175.434 40.5281L175.394 40.6306M175.434 40.5281L175.395 40.6267L175.394 40.6306M175.434 40.5281L175.45 40.6228M175.394 40.6306V40.6316L175.399 40.6306M175.394 40.6306L175.45 40.6228M175.399 40.6306L175.431 40.6707M175.399 40.6306L175.431 40.6707M175.399 40.6306L175.45 40.6228M175.431 40.6707C175.423 40.6777 175.414 40.6836 175.404 40.6853L175.375 40.6824L175.286 40.6492L175.39 40.6316L175.284 40.6482L175.28 40.6472M175.431 40.6707C175.444 40.659 175.453 40.6423 175.45 40.6228M175.28 40.6472L175.361 40.4295M175.28 40.6472L175.271 40.6433L175.203 40.5584M175.361 40.4295L175.255 40.4461L175.25 40.4519L175.242 40.4568M175.361 40.4295L175.362 40.4265L175.329 40.3855M175.361 40.4295L175.256 40.4451L175.329 40.3855M175.203 40.5584L175.242 40.4568M175.203 40.5584L175.183 40.6101M175.203 40.5584L175.268 40.6424L175.183 40.6101M175.203 40.5584L175.19 40.5926L175.183 40.6101M175.203 40.5584L175.242 40.4568M175.242 40.4568L175.168 40.5154L175.151 40.5388C175.141 40.5654 175.154 40.5985 175.183 40.6101M175.417 40.4207L175.43 40.5076L175.364 40.4285M175.417 40.4207L175.364 40.4285M175.417 40.4207C175.413 40.4003 175.4 40.3857 175.383 40.3787L175.364 40.4285M175.417 40.4207L175.364 40.4285M175.329 40.3855L175.362 40.4256L175.38 40.3767C175.364 40.3709 175.344 40.373 175.329 40.3855Z" fill="#D35400" stroke="#D35400" stroke-width="1.33333"/>
</g>
</g>
</g>
<mask id="mask38_390_1666" style="mask-type:luminance" maskUnits="userSpaceOnUse" x="180" y="39" width="2" height="2">
<mask id="path-86-inside-31_390_1666" fill="white">
<path d="M180.562 39.375H181.125V40.5H180.562V39.375Z"/>
</mask>
<path d="M180.562 39.375H181.125V40.5H180.562V39.375Z" fill="white"/>
<path d="M180.562 39.375V38.0417H179.229V39.375H180.562ZM181.125 39.375H182.458V38.0417H181.125V39.375ZM181.125 40.5V41.8333H182.458V40.5H181.125ZM180.562 40.5H179.229V41.8333H180.562V40.5ZM180.562 39.375V40.7083H181.125V39.375V38.0417H180.562V39.375ZM181.125 39.375H179.792V40.5H181.125H182.458V39.375H181.125ZM181.125 40.5V39.1667H180.562V40.5V41.8333H181.125V40.5ZM180.562 40.5H181.896V39.375H180.562H179.229V40.5H180.562Z" fill="white" mask="url(#path-86-inside-31_390_1666)"/>
</mask>
<g mask="url(#mask38_390_1666)">
<mask id="mask39_390_1666" style="mask-type:luminance" maskUnits="userSpaceOnUse" x="180" y="39" width="1" height="2">
<mask id="path-88-inside-32_390_1666" fill="white">
<path d="M180.888 39.7507L180.899 40.1726L180.477 40.1836L180.466 39.7617L180.888 39.7507Z"/>
</mask>
<path d="M180.888 39.7507L180.899 40.1726L180.477 40.1836L180.466 39.7617L180.888 39.7507Z" fill="white"/>
<path d="M180.888 39.7507L182.221 39.716L182.186 38.3831L180.853 38.4179L180.888 39.7507ZM180.899 40.1726L180.933 41.5055L182.266 41.4708L182.232 40.1379L180.899 40.1726ZM180.477 40.1836L179.144 40.2183L179.179 41.5512L180.512 41.5165L180.477 40.1836ZM180.466 39.7617L180.431 38.4288L179.098 38.4635L179.133 39.7964L180.466 39.7617ZM180.888 39.7507L179.555 39.7854L179.566 40.2073L180.899 40.1726L182.232 40.1379L182.221 39.716L180.888 39.7507ZM180.899 40.1726L180.864 38.8397L180.442 38.8507L180.477 40.1836L180.512 41.5165L180.933 41.5055L180.899 40.1726ZM180.477 40.1836L181.81 40.1489L181.799 39.727L180.466 39.7617L179.133 39.7964L179.144 40.2183L180.477 40.1836ZM180.466 39.7617L180.501 41.0946L180.922 41.0836L180.888 39.7507L180.853 38.4179L180.431 38.4288L180.466 39.7617Z" fill="white" mask="url(#path-88-inside-32_390_1666)"/>
</mask>
<g mask="url(#mask39_390_1666)">
<mask id="mask40_390_1666" style="mask-type:luminance" maskUnits="userSpaceOnUse" x="180" y="39" width="1" height="2">
<mask id="path-90-inside-33_390_1666" fill="white">
<path d="M180.888 39.7507L180.899 40.1726L180.477 40.1836L180.466 39.7617L180.888 39.7507Z"/>
</mask>
<path d="M180.888 39.7507L180.899 40.1726L180.477 40.1836L180.466 39.7617L180.888 39.7507Z" fill="white"/>
<path d="M180.888 39.7507L182.221 39.716L182.186 38.3831L180.853 38.4179L180.888 39.7507ZM180.899 40.1726L180.933 41.5055L182.266 41.4708L182.232 40.1379L180.899 40.1726ZM180.477 40.1836L179.144 40.2183L179.179 41.5512L180.512 41.5165L180.477 40.1836ZM180.466 39.7617L180.431 38.4288L179.098 38.4635L179.133 39.7964L180.466 39.7617ZM180.888 39.7507L179.555 39.7854L179.566 40.2073L180.899 40.1726L182.232 40.1379L182.221 39.716L180.888 39.7507ZM180.899 40.1726L180.864 38.8397L180.442 38.8507L180.477 40.1836L180.512 41.5165L180.933 41.5055L180.899 40.1726ZM180.477 40.1836L181.81 40.1489L181.799 39.727L180.466 39.7617L179.133 39.7964L179.144 40.2183L180.477 40.1836ZM180.466 39.7617L180.501 41.0946L180.922 41.0836L180.888 39.7507L180.853 38.4179L180.431 38.4288L180.466 39.7617Z" fill="white" mask="url(#path-90-inside-33_390_1666)"/>
</mask>
<g mask="url(#mask40_390_1666)">
<path d="M180.597 40.0322L180.607 40.0595C180.617 40.0757 180.635 40.0859 180.654 40.0859L180.681 40.0781L180.76 40.0283L180.655 40.0303M180.597 40.0322L180.651 40.0303M180.597 40.0322L180.651 40.0293H180.65L180.656 40.0283M180.597 40.0322L180.594 39.9267L180.647 39.8281H180.764M180.651 40.0303L180.653 40.0342M180.651 40.0303L180.653 40.0342M180.651 40.0303H180.655M180.653 40.0342L180.655 40.0303M180.653 40.0342L180.655 40.0303M180.764 39.8281L180.709 39.9238M180.764 39.8281L180.769 39.8301L180.828 39.9248L180.779 40.0166L180.769 40.0224L180.656 40.0283M180.764 39.8281L180.71 39.9267M180.764 39.8281L180.709 39.9238M180.764 39.8281L180.71 39.9267M180.709 39.9238L180.71 39.9267M180.709 39.9238L180.71 39.9267M180.71 39.9267L180.656 40.0283M180.71 39.9267L180.656 40.0283M180.857 39.9707L180.78 40.0166L180.829 39.9248L180.857 39.9707ZM180.857 39.9707C180.892 39.9487 180.892 39.8958 180.855 39.876M180.857 39.9707L180.829 39.9238M180.855 39.876L180.829 39.9238M180.855 39.876L180.829 39.9238M180.855 39.876L180.775 39.833L180.829 39.9238M180.593 39.8281L180.594 39.9179L180.646 39.8281H180.593ZM180.593 39.8281L180.646 39.8261L180.648 39.8222M180.593 39.8281C180.593 39.8053 180.605 39.7867 180.622 39.7773M180.648 39.8222L180.622 39.7773M180.648 39.8222L180.674 39.7773M180.648 39.8222L180.622 39.7773M180.622 39.7773C180.637 39.7687 180.656 39.7679 180.674 39.7773M180.674 39.7773L180.757 39.8242L180.648 39.8261L180.674 39.7773Z" fill="#D35400" stroke="#D35400" stroke-width="1.33333"/>
</g>
</g>
</g>
<mask id="mask41_390_1666" style="mask-type:luminance" maskUnits="userSpaceOnUse" x="172" y="30" width="7" height="30">
<path d="M178.085 31.4375V58.791H173.091V31.4375H178.085Z" fill="white" stroke="white" stroke-width="1.33333"/>
</mask>
<g mask="url(#mask41_390_1666)">
<path d="M175.654 31.4375L174.38 34.9248L174.248 35.2871L174.495 35.582L177.841 39.5811H177.842L177.958 39.7197L177.632 40.3721L174.173 47.2656L174.063 47.4834L174.121 47.7207L174.497 49.2822L173.885 47.6533L173.794 47.377L176.865 40.4678L177.043 40.0693L176.749 39.7471L173.611 36.3086H173.61L173.193 35.8525L174.664 31.4375H175.654Z" fill="#D35400" stroke="#D35400" stroke-width="1.33333"/>
</g>
<mask id="mask42_390_1666" style="mask-type:luminance" maskUnits="userSpaceOnUse" x="173" y="30" width="7" height="30">
<path d="M179.278 31.4375V58.791H174.284V31.4375H179.278Z" fill="white" stroke="white" stroke-width="1.33333"/>
</mask>
<g mask="url(#mask42_390_1666)">
<path d="M176.849 31.4375L175.573 34.9248L175.441 35.2871L175.688 35.582L179.036 39.5791V39.5801L179.151 39.7188L178.825 40.3721L175.366 47.2656L175.256 47.4834L175.314 47.7207L175.69 49.2822L175.078 47.6533L174.987 47.377L178.058 40.4678L178.236 40.0693L177.942 39.7471L174.804 36.3086H174.803L174.386 35.8525L175.857 31.4375H176.849Z" fill="#D35400" stroke="#D35400" stroke-width="1.33333"/>
</g>
<mask id="mask43_390_1666" style="mask-type:luminance" maskUnits="userSpaceOnUse" x="174" y="30" width="7" height="30">
<path d="M180.328 31.5386V58.8921H175.334V31.5386H180.328Z" fill="white" stroke="white" stroke-width="1.33333"/>
</mask>
<g mask="url(#mask43_390_1666)">
<path d="M177.897 31.5386L176.623 35.0239L176.491 35.3853L176.738 35.6812L180.084 39.6802H180.085L180.201 39.8189L179.874 40.4712L176.416 47.3638L176.307 47.5816L176.364 47.8189L176.74 49.3833L176.13 47.7593L176.037 47.4751L179.108 40.5669L179.286 40.1685L178.992 39.8462L175.854 36.4097L175.437 35.9517L176.907 31.5386H177.897Z" fill="#D35400" stroke="#D35400" stroke-width="1.33333"/>
</g>
<mask id="mask44_390_1666" style="mask-type:luminance" maskUnits="userSpaceOnUse" x="175" y="30" width="7" height="30">
<path d="M181.258 31.4375V58.791H176.264V31.4375H181.258Z" fill="white" stroke="white" stroke-width="1.33333"/>
</mask>
<g mask="url(#mask44_390_1666)">
<path d="M178.829 31.4375L177.552 34.9248L177.421 35.2871L177.668 35.582L181.015 39.5791V39.5801L181.131 39.7188L180.804 40.3721L177.345 47.2656L177.236 47.4834L177.294 47.7207L177.67 49.2822L177.057 47.6533L176.967 47.377L180.038 40.4678L180.216 40.0693L179.922 39.7471L176.784 36.3086H176.783L176.366 35.8525L177.837 31.4375H178.829Z" fill="#D35400" stroke="#D35400" stroke-width="1.33333"/>
</g>
<path d="M40.1531 35.8025H29.3865C28.5471 35.8025 27.9473 35.9783 27.5847 36.3298C27.22 36.677 27.0398 37.2417 27.0398 38.0261V43.1677H38.5447V48.0017H27.0398V60.6404H20.3689V36.6726C20.3689 34.7566 20.9709 33.2405 22.1794 32.1199C23.3857 31.0015 24.9919 30.4412 26.9958 30.4412C33.3877 30.4412 37.8899 30.6038 40.5046 30.9246L40.1531 35.8025Z" fill="black"/>
<path d="M46.1233 29.6589H48.9973C50.2454 29.6589 50.8694 30.283 50.8694 31.531V33.8865C50.8694 35.1345 50.2454 35.7586 48.9973 35.7586H46.1233C44.8687 35.7586 44.2424 35.1345 44.2424 33.8865V31.531C44.2424 30.283 44.8687 29.6589 46.1233 29.6589ZM50.7815 60.6404H44.3743V39.1599H50.7815V60.6404Z" fill="black"/>
<path d="M65.7683 52.6687L60.407 51.2273C58.4316 50.6472 57.0671 49.8562 56.3113 48.8543C55.5554 47.8523 55.1775 46.4636 55.1775 44.6882C55.1775 42.4558 55.8652 40.8738 57.2429 39.9421C58.625 39.0105 60.9893 38.5447 64.3357 38.5447C68.1963 38.604 71.5076 38.8787 74.2673 39.3709L73.8279 43.5193C70.1716 43.4622 67.4119 43.4314 65.5486 43.4314C64.5334 43.4314 63.8303 43.4402 63.4392 43.4578C63.0459 43.471 62.6526 43.5193 62.2615 43.6072C61.8682 43.6907 61.6287 43.8269 61.5408 44.0203C61.4529 44.2092 61.4089 44.4905 61.4089 44.864C61.4089 45.0112 61.4133 45.1431 61.4265 45.2595C61.4441 45.3782 61.4814 45.4858 61.5408 45.5847C61.5979 45.6858 61.6484 45.7649 61.6902 45.822C61.7363 45.8814 61.8176 45.9495 61.9363 46.0242C62.0527 46.0945 62.1472 46.145 62.2175 46.1736C62.2922 46.2044 62.4241 46.2571 62.613 46.3318C62.7998 46.4021 62.9426 46.4526 63.0437 46.4812C63.1492 46.512 63.3381 46.5603 63.615 46.6306C63.8896 46.7009 64.1006 46.7515 64.2478 46.78L69.7322 48.2654C71.6526 48.8169 73.0193 49.5486 73.8279 50.4627C74.6409 51.3767 75.0496 52.7368 75.0496 54.5408C75.0496 57.0962 74.3069 58.8342 72.8259 59.7527C71.3494 60.6668 68.8093 61.1238 65.2058 61.1238C61.7187 61.1238 58.5085 60.8733 55.573 60.3767L55.9685 56.1931C57.01 56.2525 59.4951 56.281 63.4216 56.281C65.6541 56.281 67.1086 56.1887 67.7898 55.9998C68.4753 55.813 68.8181 55.3713 68.8181 54.6726C68.8181 54.5276 68.8093 54.3958 68.7917 54.2771C68.7786 54.1607 68.7434 54.053 68.6863 53.9519C68.6335 53.853 68.5764 53.7739 68.5193 53.7146C68.46 53.6575 68.3633 53.5916 68.2292 53.5213C68.0996 53.4465 67.9963 53.3872 67.9216 53.3455C67.8513 53.2993 67.7129 53.24 67.5085 53.1697C67.3086 53.095 67.1504 53.0422 67.0339 53.0115C66.9153 52.9829 66.7109 52.9324 66.4187 52.8621C66.1309 52.7918 65.9133 52.728 65.7683 52.6687Z" fill="black"/>
<path d="M88.729 52.6687L83.3677 51.2273C81.3923 50.6472 80.0278 49.8562 79.272 48.8543C78.5161 47.8523 78.1382 46.4636 78.1382 44.6882C78.1382 42.4558 78.8259 40.8738 80.2036 39.9421C81.5857 39.0105 83.95 38.5447 87.2964 38.5447C91.157 38.604 94.4683 38.8787 97.228 39.3709L96.7886 43.5193C93.1323 43.4622 90.3726 43.4314 88.5093 43.4314C87.4941 43.4314 86.791 43.4402 86.3999 43.4578C86.0066 43.471 85.6133 43.5193 85.2222 43.6072C84.8289 43.6907 84.5894 43.8269 84.5015 44.0203C84.4136 44.2092 84.3696 44.4905 84.3696 44.864C84.3696 45.0112 84.374 45.1431 84.3872 45.2595C84.4048 45.3782 84.4421 45.4858 84.5015 45.5847C84.5586 45.6858 84.6091 45.7649 84.6509 45.822C84.697 45.8814 84.7783 45.9495 84.897 46.0242C85.0134 46.0945 85.1079 46.145 85.1782 46.1736C85.2529 46.2044 85.3848 46.2571 85.5737 46.3318C85.7605 46.4021 85.9033 46.4526 86.0044 46.4812C86.1099 46.512 86.2988 46.5603 86.5757 46.6306C86.8503 46.7009 87.0613 46.7515 87.2085 46.78L92.6929 48.2654C94.6133 48.8169 95.98 49.5486 96.7886 50.4627C97.6016 51.3767 98.0103 52.7368 98.0103 54.5408C98.0103 57.0962 97.2676 58.8342 95.7866 59.7527C94.3101 60.6668 91.77 61.1238 88.1665 61.1238C84.6794 61.1238 81.4692 60.8733 78.5337 60.3767L78.9292 56.1931C79.9707 56.2525 82.4558 56.281 86.3823 56.281C88.6147 56.281 90.0693 56.1887 90.7505 55.9998C91.436 55.813 91.7788 55.3713 91.7788 54.6726C91.7788 54.5276 91.77 54.3958 91.7524 54.2771C91.7393 54.1607 91.7041 54.053 91.647 53.9519C91.5942 53.853 91.5371 53.7739 91.48 53.7146C91.4207 53.6575 91.324 53.5916 91.1899 53.5213C91.0603 53.4465 90.957 53.3872 90.8823 53.3455C90.812 53.2993 90.6736 53.24 90.4692 53.1697C90.2693 53.095 90.1111 53.0422 89.9946 53.0115C89.876 52.9829 89.6716 52.9324 89.3794 52.8621C89.0916 52.7918 88.874 52.728 88.729 52.6687Z" fill="black"/>
<path d="M122.544 39.1599V60.6404H117.447L116.963 57.6785C113.997 60.0296 111.035 61.2029 108.077 61.2029C104.039 61.2029 102.022 59.2144 102.022 55.2351V39.1599H108.464V53.2752C108.433 54.2068 108.592 54.8638 108.939 55.2439C109.29 55.6196 109.901 55.8064 110.776 55.8064C112.024 55.8064 113.81 55.2088 116.137 54.0134V39.1599H122.544Z" fill="black"/>
<path d="M143.284 38.5447L142.625 44.5212H140.884C139.46 44.5212 137.265 45.0134 134.301 45.9978V60.6404H127.85V39.1599H132.869L133.431 42.2976C136.367 39.7971 139.271 38.5447 142.15 38.5447H143.284Z" fill="black"/>
<path d="M161.532 52.7566H151.205L149.025 60.6404H142.231L150.906 32.3132C151.016 31.7925 151.289 31.3728 151.724 31.0564C152.163 30.7356 152.657 30.573 153.209 30.573H159.484C160.737 30.573 161.508 31.1531 161.796 32.3132L170.471 60.6404H163.712L161.532 52.7566ZM160.1 47.615L157.568 38.4128C157.221 36.967 157.019 36.0222 156.962 35.5828H155.784C155.725 35.8772 155.622 36.343 155.477 36.9802C155.329 37.6196 155.215 38.0964 155.134 38.4128L152.603 47.615H160.1Z" fill="#D35400"/>
</svg>
