<svg width="40" height="40" viewBox="0 0 40 40" fill="none" xmlns="http://www.w3.org/2000/svg">
<path fill-rule="evenodd" clip-rule="evenodd" d="M20 3.05178e-05C22.6264 1.82063e-05 25.2271 0.517323 27.6537 1.52241C30.0802 2.5275 32.285 4.00068 34.1421 5.85785C35.9993 7.71502 37.4725 9.91981 38.4776 12.3463C39.4827 14.7728 40 17.3736 40 20C40 31.0457 31.0457 40.0001 20 40.0001C8.95434 40.0001 0 31.0457 0 20C0 8.95438 8.95434 3.05178e-05 20 3.05178e-05ZM22 22.0001H18C13.0486 22.0001 8.79769 24.9988 6.96422 29.2796C9.86522 33.3475 14.6228 36 20 36C25.3771 36 30.1347 33.3475 33.0358 29.2793C31.2023 24.9988 26.9514 22.0001 22 22.0001ZM20 6.00003C16.6863 6.00003 14 8.68634 14 12C14 15.3137 16.6863 18 20 18C23.3137 18 26 15.3137 26 12C26 8.68634 23.3138 6.00003 20 6.00003Z" fill="#D35400"/>
</svg>
